# MagicaVoxel @ Ephtracy

# group
o 

# material
mtllib bed.mtl
usemtl palette

# normals
vn -1 0 0
vn 1 0 0
vn 0 0 1
vn 0 0 -1
vn 0 -1 0
vn 0 1 0

# texcoords
vt 0.794922 0.5
vt 0.958984 0.5

# verts
v 0.3 2 0
v 0.3 2 -0.7
v 0.3 2 -0.8
v 0.3 2 -1
v 0.3 2.2 -0.8
v 0.3 2.2 -1
v 0.3 2.3 0
v 0.3 2.3 -0.7
v 0.3 2.3 -0.8
v 0.4 2.2 -0.9
v 0.4 2.2 -1
v 0.4 2.3 -0.9
v 0.4 2.3 -1
v 0.7 2.2 -0.9
v 0.7 2.2 -1
v 0.7 2.3 -0.9
v 0.7 2.3 -1
v 0.8 2 0
v 0.8 2 -0.7
v 0.8 2 -0.8
v 0.8 2 -1
v 0.8 2.2 -0.8
v 0.8 2.2 -1
v 0.8 2.3 0
v 0.8 2.3 -0.7
v 0.8 2.3 -0.8
v 0.3 2 0
v 0.3 2.3 0
v 0.8 2 0
v 0.8 2.3 0
v 0.4 2.2 -0.9
v 0.4 2.3 -0.9
v 0.7 2.2 -0.9
v 0.7 2.3 -0.9
v 0.3 2.2 -0.8
v 0.3 2.3 -0.8
v 0.8 2.2 -0.8
v 0.8 2.3 -0.8
v 0.3 2 -1
v 0.3 2.2 -1
v 0.4 2.2 -1
v 0.4 2.3 -1
v 0.7 2.2 -1
v 0.7 2.3 -1
v 0.8 2 -1
v 0.8 2.2 -1
v 0.3 2 0
v 0.8 2 0
v 0.3 2 -0.7
v 0.4 2 -0.7
v 0.7 2 -0.7
v 0.8 2 -0.7
v 0.3 2 -0.8
v 0.4 2 -0.8
v 0.7 2 -0.8
v 0.8 2 -0.8
v 0.3 2 -1
v 0.8 2 -1
v 0.3 2.2 -0.8
v 0.8 2.2 -0.8
v 0.4 2.2 -0.9
v 0.7 2.2 -0.9
v 0.3 2.2 -1
v 0.4 2.2 -1
v 0.7 2.2 -1
v 0.8 2.2 -1
v 0.3 2.3 0
v 0.8 2.3 0
v 0.3 2.3 -0.7
v 0.8 2.3 -0.7
v 0.3 2.3 -0.8
v 0.8 2.3 -0.8
v 0.4 2.3 -0.9
v 0.7 2.3 -0.9
v 0.4 2.3 -1
v 0.7 2.3 -1

# faces
f 5/2/1 3/2/1 2/2/1
f 5/1/1 4/1/1 3/1/1
f 6/1/1 4/1/1 5/1/1
f 7/1/1 2/1/1 1/1/1
f 8/2/1 5/2/1 2/2/1
f 8/1/1 2/1/1 7/1/1
f 9/2/1 5/2/1 8/2/1
f 12/2/1 11/2/1 10/2/1
f 13/2/1 11/2/1 12/2/1
f 14/2/2 15/2/2 16/2/2
f 16/2/2 15/2/2 17/2/2
f 19/2/2 20/2/2 22/2/2
f 20/1/2 21/1/2 22/1/2
f 22/1/2 21/1/2 23/1/2
f 18/1/2 19/1/2 24/1/2
f 19/2/2 22/2/2 25/2/2
f 24/1/2 19/1/2 25/1/2
f 25/2/2 22/2/2 26/2/2
f 29/1/3 28/1/3 27/1/3
f 30/1/3 28/1/3 29/1/3
f 33/2/3 32/2/3 31/2/3
f 34/2/3 32/2/3 33/2/3
f 35/2/4 36/2/4 37/2/4
f 37/2/4 36/2/4 38/2/4
f 39/1/4 40/1/4 41/1/4
f 39/1/4 41/1/4 43/1/4
f 41/2/4 42/2/4 43/2/4
f 43/2/4 42/2/4 44/2/4
f 39/1/4 43/1/4 45/1/4
f 45/1/4 43/1/4 46/1/4
f 49/1/5 48/1/5 47/1/5
f 50/1/5 48/1/5 49/1/5
f 51/1/5 48/1/5 50/1/5
f 52/1/5 48/1/5 51/1/5
f 53/2/5 50/2/5 49/2/5
f 54/1/5 51/1/5 50/1/5
f 54/2/5 50/2/5 53/2/5
f 55/2/5 52/2/5 51/2/5
f 55/1/5 51/1/5 54/1/5
f 56/2/5 52/2/5 55/2/5
f 57/1/5 54/1/5 53/1/5
f 57/1/5 55/1/5 54/1/5
f 57/1/5 56/1/5 55/1/5
f 58/1/5 56/1/5 57/1/5
f 59/1/6 60/1/6 61/1/6
f 61/1/6 60/1/6 62/1/6
f 59/1/6 61/1/6 63/1/6
f 63/1/6 61/1/6 64/1/6
f 62/1/6 60/1/6 65/1/6
f 65/1/6 60/1/6 66/1/6
f 67/1/6 68/1/6 69/1/6
f 69/1/6 68/1/6 70/1/6
f 69/2/6 70/2/6 71/2/6
f 71/2/6 70/2/6 72/2/6
f 73/2/6 74/2/6 75/2/6
f 75/2/6 74/2/6 76/2/6
